<svg xmlns="http://www.w3.org/2000/svg" xmlns:xlink="http://www.w3.org/1999/xlink" width="996" height="562" viewBox="0 0 996 562"><defs><style>.cls-1{fill:url(#New_Gradient_Swatch_copy_53);}.cls-2{fill:#f2f2f2;}.cls-3{fill:#ccc;}.cls-4{fill:#ec008c;}.cls-5{fill:url(#New_Gradient_Swatch_copy_62);}.cls-6{fill:url(#linear-gradient);}.cls-7{fill:#ffcb05;}.cls-8{fill:url(#New_Gradient_Swatch_copy_44);}.cls-9{fill:url(#New_Gradient_Swatch_copy_65);}.cls-10{fill:#8dc63f;}.cls-11{fill:#00b6b0;}.cls-12{fill:#3c2415;}.cls-13{fill:url(#New_Gradient_Swatch_copy_57);}.cls-14{fill:url(#New_Gradient_Swatch_copy_56);}.cls-15{fill:url(#New_Gradient_Swatch_copy_66);}.cls-16{fill:url(#New_Gradient_Swatch_copy_55);}.cls-17{fill:url(#New_Gradient_Swatch_copy_61);}.cls-18{fill:url(#New_Gradient_Swatch_copy_59);}.cls-19{fill:url(#New_Gradient_Swatch_copy_58);}.cls-20{fill:url(#New_Gradient_Swatch_copy_63);}.cls-21{fill:url(#New_Gradient_Swatch_copy_60);}.cls-22{fill:url(#New_Gradient_Swatch_copy_46);}.cls-23{fill:url(#New_Gradient_Swatch_copy_43);}</style><linearGradient id="New_Gradient_Swatch_copy_53" x1="-3075.84" y1="560.29" x2="-3147" y2="631.45" gradientTransform="translate(-2287 974.12) rotate(180)" gradientUnits="userSpaceOnUse"><stop offset="0.04" stop-color="#e8dec8"/><stop offset="0.15" stop-color="#ede3cd"/><stop offset="0.59" stop-color="#fff2db"/></linearGradient><linearGradient id="New_Gradient_Swatch_copy_62" x1="804.97" y1="211.99" x2="1132.81" y2="211.99" gradientTransform="translate(-327.51 -133.89)" gradientUnits="userSpaceOnUse"><stop offset="0.28" stop-color="#8dc63f"/><stop offset="0.39" stop-color="#8bc53f"/><stop offset="0.43" stop-color="#84c03f"/><stop offset="0.46" stop-color="#79b83e"/><stop offset="0.48" stop-color="#68ad3d"/><stop offset="0.5" stop-color="#529e3c"/><stop offset="0.52" stop-color="#368c3b"/><stop offset="0.54" stop-color="#177739"/><stop offset="0.55" stop-color="#006838"/></linearGradient><linearGradient id="linear-gradient" x1="-2902.83" y1="896.02" x2="-3036.34" y2="896.02" gradientTransform="translate(-2287 974.12) rotate(180)" gradientUnits="userSpaceOnUse"><stop offset="0.03" stop-color="#f26522"/><stop offset="0.07" stop-color="#f5791f"/><stop offset="0.14" stop-color="#f8901a"/><stop offset="0.21" stop-color="#faa217"/><stop offset="0.3" stop-color="#fcaf15"/><stop offset="0.42" stop-color="#fdb713"/><stop offset="0.67" stop-color="#fdb913"/></linearGradient><linearGradient id="New_Gradient_Swatch_copy_44" x1="824.78" y1="601.51" x2="876.22" y2="652.94" gradientTransform="matrix(1, 0, 0, -1, -327.51, 677.31)" gradientUnits="userSpaceOnUse"><stop offset="0" stop-color="#00b6b0"/><stop offset="0.19" stop-color="#01b4ae"/><stop offset="0.29" stop-color="#04aca9"/><stop offset="0.37" stop-color="#099e9f"/><stop offset="0.45" stop-color="#108b91"/><stop offset="0.51" stop-color="#19727f"/><stop offset="0.57" stop-color="#245369"/><stop offset="0.61" stop-color="#2f3654"/></linearGradient><linearGradient id="New_Gradient_Swatch_copy_65" x1="-2672.45" y1="654.3" x2="-2672.45" y2="1037.76" gradientTransform="translate(-2287 974.12) rotate(180)" gradientUnits="userSpaceOnUse"><stop offset="0.1" stop-color="#f26522"/><stop offset="0.15" stop-color="#f5791f"/><stop offset="0.23" stop-color="#f8901a"/><stop offset="0.33" stop-color="#faa217"/><stop offset="0.44" stop-color="#fcaf15"/><stop offset="0.59" stop-color="#fdb713"/><stop offset="0.9" stop-color="#fdb913"/></linearGradient><linearGradient id="New_Gradient_Swatch_copy_57" x1="-3113.15" y1="755.58" x2="-3177.43" y2="819.87" gradientTransform="translate(-2287 974.12) rotate(180)" gradientUnits="userSpaceOnUse"><stop offset="0" stop-color="#ec008c"/><stop offset="0.32" stop-color="#ea008b"/><stop offset="0.43" stop-color="#e30188"/><stop offset="0.52" stop-color="#d80382"/><stop offset="0.58" stop-color="#c7057a"/><stop offset="0.64" stop-color="#b10870"/><stop offset="0.69" stop-color="#950c63"/><stop offset="0.73" stop-color="#761054"/><stop offset="0.77" stop-color="#521543"/><stop offset="0.78" stop-color="#501542"/></linearGradient><linearGradient id="New_Gradient_Swatch_copy_56" x1="-3085.93" y1="703.13" x2="-3167.97" y2="785.17" gradientTransform="translate(-2287 974.12) rotate(180)" gradientUnits="userSpaceOnUse"><stop offset="0" stop-color="#00b6b0"/><stop offset="0.17" stop-color="#01b3ae"/><stop offset="0.29" stop-color="#04aaa7"/><stop offset="0.39" stop-color="#0a9a9c"/><stop offset="0.48" stop-color="#12858c"/><stop offset="0.57" stop-color="#1d6878"/><stop offset="0.65" stop-color="#29465f"/><stop offset="0.69" stop-color="#2f3654"/></linearGradient><linearGradient id="New_Gradient_Swatch_copy_66" x1="-2575.03" y1="814.12" x2="-2677.85" y2="916.94" gradientTransform="translate(-2287 974.12) rotate(180)" gradientUnits="userSpaceOnUse"><stop offset="0" stop-color="#00b6b0"/><stop offset="0.28" stop-color="#01b4af"/><stop offset="0.38" stop-color="#03adaa"/><stop offset="0.45" stop-color="#08a2a1"/><stop offset="0.51" stop-color="#0e9195"/><stop offset="0.56" stop-color="#167b85"/><stop offset="0.6" stop-color="#205f72"/><stop offset="0.64" stop-color="#2b405b"/><stop offset="0.65" stop-color="#2f3654"/></linearGradient><linearGradient id="New_Gradient_Swatch_copy_55" x1="-3088.05" y1="630.79" x2="-3241.78" y2="784.53" gradientTransform="translate(-2287 974.12) rotate(180)" gradientUnits="userSpaceOnUse"><stop offset="0.07" stop-color="#f26522"/><stop offset="0.13" stop-color="#f57e1e"/><stop offset="0.21" stop-color="#f8941a"/><stop offset="0.3" stop-color="#faa517"/><stop offset="0.41" stop-color="#fcb015"/><stop offset="0.57" stop-color="#fdb713"/><stop offset="1" stop-color="#fdb913"/></linearGradient><linearGradient id="New_Gradient_Swatch_copy_61" x1="919.41" y1="605.74" x2="969.85" y2="656.19" gradientTransform="matrix(1, 0, 0, -1, -327.51, 677.31)" gradientUnits="userSpaceOnUse"><stop offset="0" stop-color="#ec008c"/><stop offset="0.12" stop-color="#e7018a"/><stop offset="0.26" stop-color="#d90383"/><stop offset="0.41" stop-color="#c20678"/><stop offset="0.56" stop-color="#a10a69"/><stop offset="0.72" stop-color="#781055"/><stop offset="0.85" stop-color="#501542"/></linearGradient><linearGradient id="New_Gradient_Swatch_copy_59" x1="1208.77" y1="673.45" x2="1164.9" y2="629.59" gradientTransform="matrix(1, 0, 0, -1, -327.51, 677.31)" gradientUnits="userSpaceOnUse"><stop offset="0" stop-color="#00b6b0"/><stop offset="0.64" stop-color="#2f3654"/><stop offset="0.67" stop-color="#5f316e"/></linearGradient><linearGradient id="New_Gradient_Swatch_copy_58" x1="-3235.93" y1="921.8" x2="-3111.26" y2="797.13" gradientTransform="translate(-2287 974.12) rotate(180)" gradientUnits="userSpaceOnUse"><stop offset="0.07" stop-color="#8c5f4a"/><stop offset="0.23" stop-color="#7f5642"/><stop offset="0.53" stop-color="#5e3d2c"/><stop offset="0.79" stop-color="#3c2415"/></linearGradient><linearGradient id="New_Gradient_Swatch_copy_63" x1="942.26" y1="227.85" x2="855.63" y2="227.85" gradientTransform="translate(-327.51 -133.89)" gradientUnits="userSpaceOnUse"><stop offset="0" stop-color="#00b6b0"/><stop offset="0.16" stop-color="#01b3ae"/><stop offset="0.3" stop-color="#05a8a6"/><stop offset="0.44" stop-color="#0c9699"/><stop offset="0.56" stop-color="#157d87"/><stop offset="0.69" stop-color="#205e71"/><stop offset="0.8" stop-color="#2f3755"/><stop offset="0.81" stop-color="#2f3654"/><stop offset="0.84" stop-color="#5f316e"/></linearGradient><linearGradient id="New_Gradient_Swatch_copy_60" x1="1256.12" y1="629.33" x2="1256.12" y2="703.32" gradientTransform="matrix(1, 0, 0, -1, -327.51, 677.31)" gradientUnits="userSpaceOnUse"><stop offset="0.27" stop-color="#f26522"/><stop offset="0.3" stop-color="#f36e1f"/><stop offset="0.39" stop-color="#f78f16"/><stop offset="0.5" stop-color="#fbaa0e"/><stop offset="0.6" stop-color="#fdbc09"/><stop offset="0.71" stop-color="#ffc706"/><stop offset="0.82" stop-color="#ffcb05"/></linearGradient><linearGradient id="New_Gradient_Swatch_copy_46" x1="869.95" y1="576.93" x2="869.95" y2="663.94" gradientTransform="matrix(1, 0, 0, -1, -327.51, 677.31)" gradientUnits="userSpaceOnUse"><stop offset="0" stop-color="#ec008c"/><stop offset="0.17" stop-color="#e8018a"/><stop offset="0.33" stop-color="#dd0285"/><stop offset="0.49" stop-color="#ca057c"/><stop offset="0.64" stop-color="#af086f"/><stop offset="0.79" stop-color="#8c0d5f"/><stop offset="0.94" stop-color="#63124b"/><stop offset="1" stop-color="#501542"/></linearGradient><linearGradient id="New_Gradient_Swatch_copy_43" x1="-2705.4" y1="862.5" x2="-2757.71" y2="914.8" gradientTransform="translate(-2287 974.12) rotate(180)" gradientUnits="userSpaceOnUse"><stop offset="0.04" stop-color="#f26522"/><stop offset="0.15" stop-color="#f5781f"/><stop offset="0.37" stop-color="#f8941a"/><stop offset="0.58" stop-color="#fba916"/><stop offset="0.79" stop-color="#fcb514"/><stop offset="1" stop-color="#fdb913"/></linearGradient></defs><title>background</title><g id="Illustration"><polygon class="cls-1" points="763.11 306.54 733.98 334.24 841.93 436.94 900.17 436.94 763.11 306.54"/><polygon class="cls-2" points="414.55 397.34 519.4 397.34 626.39 500.6 754.53 376.93 903.61 520.81 953.32 520.81 996 562 996 0.14 0 0 146.79 138.92 414.55 397.34"/><polygon class="cls-3" points="772 410.46 772 104.17 662.64 0.12 340.71 0.12 772 410.46"/><path class="cls-4" d="M480.33,228.92l54.12-55.44L352.23.12H239.83Zm70.9-72.64L387.09.12H370L543,164.71Z"/><polygon class="cls-5" points="477.46 0.12 805.31 0.12 641.38 156.07 477.46 0.12"/><polygon class="cls-6" points="641.38 0.12 805.31 0.12 641.38 156.07 641.38 156.07 641.38 0.12"/><polygon class="cls-7" points="551.23 156.28 551.26 156.26 641.38 156.07 477.46 0.12 387.09 0.12 551.23 156.28"/><polygon class="cls-8" points="551.23 117.62 427.73 0.12 477.46 0.12 600.83 117.49 551.25 117.59 551.23 117.62"/><polygon class="cls-9" points="478.3 204.22 507.14 176.78 321.45 0.12 263.76 0.12 478.3 204.22"/><polygon class="cls-10" points="996 296.45 996 0.12 684.53 0.12 996 296.45"/><polygon class="cls-11" points="996 349.87 714.65 82.21 655.07 82.21 996 406.56 996 349.87"/><polygon class="cls-12" points="624.95 0.12 684.54 0.12 714.7 28.81 655.11 28.81 624.95 0.12"/><polygon class="cls-13" points="996 296.44 714.7 28.8 714.7 82.25 996 349.87 996 296.44"/><polygon class="cls-4" points="996 384.98 628.82 35.65 628.82 91.52 996 440.85 996 384.98"/><polygon class="cls-14" points="996 384.98 677.76 82.21 655.07 82.21 996 406.56 996 384.98"/><polygon class="cls-7" points="996 422.63 715.38 155.66 669.5 155.66 996 466.29 996 422.63"/><polygon class="cls-15" points="427.17 228.92 480.33 228.92 239.83 0.12 186.67 0.12 427.17 228.92"/><polygon class="cls-4" points="707.69 0.12 723.97 0.12 803.83 76.1 787.55 76.1 707.69 0.12"/><polygon class="cls-16" points="996 422.63 715.38 155.66 696.24 155.66 996 440.85 996 422.63"/><polygon class="cls-17" points="587.83 35.65 628.82 35.65 628.82 74.64 587.83 35.65"/><polygon class="cls-7" points="996 0.12 996 94.49 839.46 94.49 740.27 0.12 996 0.12"/><polygon class="cls-4" points="839.46 94.49 996 94.49 996 0.12 839.43 0.12 839.43 94.46 839.46 94.49"/><polygon class="cls-11" points="765.13 0.12 824.72 0.12 886.5 58.9 826.92 58.9 765.13 0.12"/><polygon class="cls-18" points="824.72 0.12 861.24 0.12 886.5 24.16 886.5 58.9 824.72 0.12"/><polygon class="cls-19" points="899.65 204.79 899.65 104.17 793.89 104.17 899.65 204.79"/><polygon class="cls-7" points="996 195.79 899.69 104.17 899.65 104.17 899.65 204.79 996 296.44 996 195.79"/><polygon class="cls-20" points="551.23 70.31 600.83 117.49 551.25 117.59 551.23 117.61 551.23 70.31"/><polygon class="cls-7" points="478.3 204.22 449.48 176.8 507.12 176.8 478.3 204.22"/><polygon class="cls-21" points="886.5 24.2 886.5 24.16 861.24 0.12 996 0.12 996 24.2 886.5 24.2"/><polygon class="cls-4" points="571.26 34.63 571.13 89.24 477.46 0.12 535.05 0.12 571.29 34.6 571.26 34.63"/><polygon class="cls-22" points="571.13 89.24 513.6 34.5 571.19 34.5 571.29 34.6 571.26 34.63 571.13 89.24"/><polygon class="cls-23" points="525.22 164.7 543 164.7 370.01 0.12 352.22 0.12 525.22 164.7"/></g></svg>