<?xml version="1.0" encoding="utf-8"?>
<!-- Generator: Adobe Illustrator 21.0.2, SVG Export Plug-In . SVG Version: 6.00 Build 0)  -->
<svg version="1.1" id="Layer_1" xmlns="http://www.w3.org/2000/svg" xmlns:xlink="http://www.w3.org/1999/xlink" x="0px" y="0px"
	 viewBox="0 0 35.4 25.6" style="enable-background:new 0 0 35.4 25.6;" xml:space="preserve">
<style type="text/css">
	.st0{fill:#FFFFFF;}
	.st1{fill:#EC008C;}
</style>
<title>cart</title>
<g>
	<g>
		<path class="st0" d="M26.8,24.9c-1.5,0-2.7-1.1-2.9-2.6c0-0.2,0-0.5,0-0.7c0-0.2,0-0.3,0-0.5h-0.6c0.1,0.6,0.1,1.2-0.2,1.7
			c-0.3,0.8-0.9,1.4-1.7,1.7c-0.4,0.2-0.8,0.3-1.3,0.3c-0.8,0-1.6-0.3-2.3-0.9c-1.2-1-1.4-2.9-0.4-4.2c0,0,0,0,0,0
			c-0.3-0.4-0.6-0.8-0.8-1.3c-0.6-1.8-1.7-4.5-2.7-7.1c-0.4-0.9-0.7-1.8-1.1-2.7c-0.7-1.7-1.3-3.3-1.8-4.5c-0.2-0.6-0.6-0.9-1.2-0.9
			H8.6c-0.7,0-1.3-0.6-1.3-1.3s0.6-1.3,1.3-1.3h1.5c1.7,0,3.1,1.1,3.6,2.7L14,4.1h19.2c0.6,0,1.1,0.5,1.1,1.1c0,0.1,0,0.3-0.1,0.4
			l-2.6,7.3c-0.2,0.6-0.7,0.9-1.3,0.9H17.7c0.6,1.5,1.1,2.8,1.5,3.9c0.2,0.6,0.7,0.9,1.3,0.9H27c1.7,0,3.1,1.4,3.1,3.1
			s-1.4,3.1-3.1,3.1C27,24.9,26.9,24.9,26.8,24.9z"/>
		<path class="st1" d="M10.1,1.1c1.4,0,2.7,0.9,3.1,2.3l0.4,1.2h19.6c0,0,0,0,0,0c0.3,0,0.6,0.3,0.6,0.6c0,0.1,0,0.1,0,0.2l-2.6,7.4
			c-0.1,0.4-0.5,0.6-0.8,0.6c0,0,0,0,0,0H17c0.7,1.7,1.3,3.3,1.7,4.5c0.3,0.8,1,1.3,1.8,1.3H27c1.5,0,2.6,1.2,2.6,2.6
			c0,1.5-1.2,2.6-2.6,2.6c-0.1,0-0.2,0-0.3,0c-1.2,0-2.2-0.9-2.4-2.1c0-0.2,0-0.4,0-0.6c0-0.4,0.1-0.7,0.2-1.1h-2
			c0.6,1.3,0,2.9-1.3,3.5c-0.3,0.1-0.7,0.2-1.1,0.2c-0.7,0-1.4-0.3-1.9-0.7c-1-0.9-1.2-2.4-0.3-3.5c0.1-0.1,0.2-0.2,0.3-0.3
			c-0.5-0.4-0.8-0.9-1-1.5c-0.6-1.8-1.7-4.5-2.7-7.2S12.4,5.8,11.7,4c-0.2-0.7-0.9-1.3-1.6-1.3H8.6c-0.4,0-0.8-0.4-0.8-0.8
			c0-0.4,0.4-0.8,0.8-0.8H10.1 M10.1,0.1L10.1,0.1L10.1,0.1H8.6c-1,0-1.8,0.8-1.8,1.8c0,1,0.8,1.8,1.8,1.8h1.5
			c0.3,0,0.6,0.2,0.7,0.5l0,0l0,0c0.4,1.2,1.1,2.8,1.8,4.5c0.4,0.9,0.7,1.8,1.1,2.7c1,2.7,2.1,5.4,2.7,7.1c0.1,0.4,0.3,0.8,0.6,1.2
			c-0.9,1.5-0.7,3.4,0.7,4.5c0.7,0.6,1.6,1,2.5,1c0.5,0,1-0.1,1.5-0.3c0.9-0.4,1.5-1.1,1.9-1.9c0.5,1.3,1.7,2.3,3.2,2.3
			c0.1,0,0.2,0,0.3,0c2,0,3.6-1.7,3.6-3.6c0-2-1.6-3.6-3.6-3.6h-6.5c-0.4,0-0.7-0.2-0.9-0.6c-0.3-0.9-0.7-2-1.2-3.2h11.9
			c0.8,0,1.5-0.5,1.8-1.3l2.6-7.3c0.1-0.2,0.1-0.4,0.1-0.5c0-0.9-0.7-1.6-1.6-1.6l-18.9,0l-0.2-0.5C13.6,1.3,12,0.1,10.1,0.1
			L10.1,0.1z"/>
	</g>
	<g>
		<path class="st0" d="M5.8,19.9c-1.1,0-1.9-0.9-1.9-1.9v-1.6H2.5c-1.1,0-1.9-0.9-1.9-1.9c0-1.1,0.9-1.9,1.9-1.9h1.4v-1.6
			C3.9,9.8,4.8,9,5.8,9s1.9,0.9,1.9,1.9v1.6h1.4c1.1,0,1.9,0.9,1.9,2c0,1-0.8,1.9-1.9,1.9H7.8v1.6C7.8,19,6.9,19.9,5.8,19.9z"/>
		<path class="st1" d="M5.8,9.5c0.8,0,1.4,0.6,1.4,1.4V13h1.9c0.8,0,1.4,0.7,1.4,1.5c0,0.8-0.6,1.4-1.4,1.4H7.3v2.1
			c0,0.8-0.6,1.4-1.4,1.4s-1.4-0.6-1.4-1.4v-2.1H2.5c-0.8,0-1.4-0.6-1.4-1.4S1.7,13,2.5,13h1.9v-2.1C4.4,10.1,5,9.5,5.8,9.5
			 M5.8,8.5c-1.3,0-2.4,1.1-2.4,2.4V12H2.5c-1.3,0-2.4,1.1-2.4,2.4s1.1,2.4,2.4,2.4h0.9v1.1c0,1.3,1.1,2.4,2.4,2.4s2.4-1.1,2.4-2.4
			v-1.1h0.9c1.3,0,2.4-1.1,2.4-2.4c0-1.3-1-2.4-2.4-2.5l-0.9,0v-1.1C8.3,9.6,7.2,8.5,5.8,8.5L5.8,8.5z"/>
	</g>
</g>
</svg>
