<svg xmlns="http://www.w3.org/2000/svg" width="363.5" height="30.42" viewBox="0 0 363.5 30.42"><defs><style>.cls-1{fill:#ec008c;}</style></defs><title>logo</title><g id="Logo"><path class="cls-1" d="M4,26.47V10.67H8v4h7.9v-4h4v15.8h-4v-7.9H8v7.9ZM8,6.72v4h7.9v-4Z"/><path class="cls-1" d="M31.61,26.47V6.72h4V26.47Zm4-15.8h4v4h-4Zm4,4h4v4h-4Zm4,4h4v4h-4Zm4,7.9V6.72h4V26.47Z"/><path class="cls-1" d="M67.17,22.52h-4V10.67h4Zm7.9-11.85h-7.9v-4h7.9Zm0,15.8h-7.9v-4h7.9Zm4-4h-4V10.67h4Z"/><path class="cls-1" d="M94.83,26.47V10.67h-4v-4h11.85v4h-4v15.8Z"/><path class="cls-1" d="M114.58,26.47V6.72h4v7.9h7.9V6.72h4V26.47h-4v-7.9h-7.9v7.9Z"/><path class="cls-1" d="M154.09,10.67h-7.9v4h7.9v4h-7.9v4h7.9v4H142.24V6.72h11.85Z"/><path class="cls-1" d="M165.95,26.47V6.72H177.8v4h-7.9v4h7.9v4h-7.9v7.9Zm7.9-7.9h4v4h-4Zm4-7.9h4v4h-4Zm0,11.85h4v4h-4Z"/><path class="cls-1" d="M217.31,22.52h-4V10.67h4Zm7.9-11.85h-7.9v-4h7.9Zm0,15.8h-7.9v-4h7.9Zm4-11.85h-4v-4h4Zm0,7.9h-4v-4h4Z"/><path class="cls-1" d="M241.11,26.47V10.67h4v4H253v-4h4v15.8h-4v-7.9h-7.9v7.9Zm4-19.76v4H253v-4Z"/><path class="cls-1" d="M268.67,10.67h4v4h-4Zm0,15.8v-4h11.85v4Zm4-15.8v-4h11.85v4Zm0,7.9h7.9v-4h-7.9Zm7.9,0h4v4h-4Z"/><path class="cls-1" d="M300.28,26.47V10.67h-4v-4h11.85v4h-4v15.8Z"/><path class="cls-1" d="M324,22.52h7.9v4H320V6.72h4Z"/><path class="cls-1" d="M355.6,10.67h-7.9v4h7.9v4h-7.9v4h7.9v4H343.75V6.72H355.6Z"/></g></svg>